<svg width="216" height="209" viewBox="0 0 216 209" fill="none" xmlns="http://www.w3.org/2000/svg">
<path d="M203.65 2.53C199.996 1.01807 195.975 0.623404 192.097 1.39589C188.219 2.16838 184.656 4.07334 181.86 6.86999C181.66 7.06999 181.47 7.26999 181.29 7.47999L166.29 24.78C148.619 14.4401 128.514 8.99025 108.04 8.99025C87.5662 8.99025 67.4612 14.4401 49.7901 24.78L34.7901 7.47999C34.6101 7.26999 34.4201 7.06999 34.2201 6.86999C31.428 4.04681 27.8587 2.11864 23.9669 1.33107C20.0751 0.543513 16.0369 0.932214 12.3668 2.44767C8.69669 3.96312 5.56072 6.53673 3.35836 9.84067C1.15601 13.1446 -0.0130472 17.0293 0.000109846 21V109C0.000109846 164.14 48.4501 209 108 209C167.55 209 216 164.14 216 109V21C215.998 17.0452 214.824 13.1798 212.626 9.89226C210.428 6.60473 207.304 4.04269 203.65 2.53ZM192 109C192 147.22 160.65 178.93 120 184.21V170L132.49 157.51C134.744 155.256 136.011 152.198 136.011 149.01C136.011 145.822 134.744 142.764 132.49 140.51C130.236 138.256 127.178 136.989 123.99 136.989C120.802 136.989 117.744 138.256 115.49 140.51L108 148L100.49 140.48C98.2358 138.226 95.1782 136.959 91.9901 136.959C88.802 136.959 85.7444 138.226 83.4901 140.48C81.2358 142.734 79.9693 145.792 79.9693 148.98C79.9693 152.168 81.2358 155.226 83.4901 157.48L96.0001 170V184.24C55.3501 178.96 24.0001 147.24 24.0001 109.03V31.74L38.5401 48.47C40.5236 50.7512 43.295 52.1997 46.3003 52.526C49.3055 52.8523 52.3232 52.0323 54.7501 50.23C61.2576 45.4193 68.4115 41.5511 76.0001 38.74V61C76.0001 64.1826 77.2644 67.2348 79.5148 69.4853C81.7653 71.7357 84.8175 73 88.0001 73C91.1827 73 94.235 71.7357 96.4854 69.4853C98.7358 67.2348 100 64.1826 100 61V33.35C102.667 33.1167 105.333 33 108 33C110.667 33 113.333 33.1167 116 33.35V61C116 64.1826 117.264 67.2348 119.515 69.4853C121.765 71.7357 124.818 73 128 73C131.183 73 134.235 71.7357 136.485 69.4853C138.736 67.2348 140 64.1826 140 61V38.74C147.588 41.5535 154.741 45.4215 161.25 50.23C163.677 52.0323 166.695 52.8523 169.7 52.526C172.705 52.1997 175.477 50.7512 177.46 48.47L192 31.74V109ZM80.0001 113C80.0001 116.164 79.0617 119.258 77.3036 121.889C75.5455 124.52 73.0467 126.571 70.123 127.782C67.1994 128.993 63.9824 129.31 60.8787 128.693C57.775 128.075 54.924 126.551 52.6864 124.314C50.4488 122.076 48.9249 119.225 48.3075 116.121C47.6902 113.018 48.007 109.801 49.218 106.877C50.429 103.953 52.4798 101.455 55.111 99.6965C57.7422 97.9384 60.8356 97 64.0001 97C68.2436 97 72.3132 98.6857 75.3138 101.686C78.3144 104.687 80.0001 108.757 80.0001 113ZM168 113C168 116.164 167.062 119.258 165.304 121.889C163.546 124.52 161.047 126.571 158.123 127.782C155.199 128.993 151.982 129.31 148.879 128.693C145.775 128.075 142.924 126.551 140.686 124.314C138.449 122.076 136.925 119.225 136.308 116.121C135.69 113.018 136.007 109.801 137.218 106.877C138.429 103.953 140.48 101.455 143.111 99.6965C145.742 97.9384 148.836 97 152 97C156.244 97 160.313 98.6857 163.314 101.686C166.314 104.687 168 108.757 168 113Z" fill="black"/>
</svg>
